<?xml version="1.0" encoding="utf-8"?><svg viewBox="0 0 286 62" xmlns="http://www.w3.org/2000/svg" xmlns:xlink="http://www.w3.org/1999/xlink"><style>:root>svg{display:none}:root>svg:target{display:block}</style><svg viewBox="0 0 20 14" id="arrow" xmlns="http://www.w3.org/2000/svg"><path d="M19.728 6.292L13.776.275a.923.923 0 00-1.315 0 .947.947 0 000 1.33l4.364 4.411H.93c-.514 0-.93.421-.93.94 0 .52.416.94.93.94h15.895l-4.364 4.412a.947.947 0 000 1.33.922.922 0 001.315 0l5.952-6.017a.947.947 0 000-1.33z"/></svg><svg viewBox="0 0 32 32" id="checked" xmlns="http://www.w3.org/2000/svg"><path fill-rule="evenodd" d="M0 16c0 8.837 7.163 16 16 16s16-7.163 16-16S24.837 0 16 0 0 7.163 0 16c0 0 0 8.837 0 0zm29.09 0c0 7.23-5.86 13.09-13.09 13.09-7.23 0-13.09-5.86-13.09-13.09C2.91 8.77 8.77 2.91 16 2.91c7.23 0 13.09 5.86 13.09 13.09 0 0 0 7.23 0 0zM13.6 17.972l8.469-8.47 2.262 2.264L13.6 22.497l-5.931-5.931 2.262-2.263 3.669 3.669z" clip-rule="evenodd"/></svg><svg viewBox="0 0 56 62" id="membrane" xmlns="http://www.w3.org/2000/svg"><path d="M27.9 0h.229c.459.146.865.41 1.284.641 8.652 4.79 17.302 9.58 25.95 14.372.432.194.74.675.604 1.153-.102.498-.611.702-1.007.924-3.764 2.084-7.528 4.17-11.292 6.256-.2.06.02.186.096.222 3.894 2.154 7.785 4.31 11.675 6.467a.98.98 0 01.5 1.2c-.129.411-.552.589-.895.785a5315.76 5315.76 0 00-11.527 6.383c3.973 2.205 7.947 4.408 11.924 6.608a.98.98 0 01.497 1.202c-.157.464-.657.635-1.041.864-8.217 4.545-16.43 9.094-24.641 13.647-.705.362-1.367.816-2.107 1.11h-.28a6.616 6.616 0 01-1.12-.556C18.02 56.44 9.29 51.603.557 46.768a.975.975 0 01-.53-1.105c.063-.324.327-.545.603-.692 3.959-2.186 7.914-4.375 11.866-6.567L.639 31.84c-.278-.147-.544-.372-.603-.695a.975.975 0 01.525-1.1c3.971-2.21 7.947-4.415 11.929-6.615-3.975-2.21-7.953-4.415-11.934-6.616a.973.973 0 01-.524-1.101c.064-.324.33-.546.604-.693 8.91-4.932 17.82-9.867 26.729-14.803.17-.09.35-.162.535-.216zM23.26 4.726c1.575.88 3.159 1.746 4.734 2.625 1.572-.865 3.14-1.733 4.707-2.606v-.071a515.376 515.376 0 00-4.7-2.603c-1.569.895-3.185 1.73-4.74 2.655zm-6.76 3.717c1.555.923 3.164 1.756 4.736 2.65 1.506-.823 3.002-1.665 4.508-2.488.079-.038.342-.184.1-.242-1.539-.845-3.072-1.704-4.612-2.548-1.572.884-3.156 1.749-4.73 2.628h-.001zm13.52.028c1.575.878 3.156 1.744 4.73 2.624 1.48-.808 2.95-1.638 4.43-2.446.11-.066.218-.138.32-.217-1.586-.863-3.157-1.751-4.74-2.616-1.569.896-3.185 1.727-4.738 2.655h-.003zM9.69 12.198c1.607.862 3.195 1.76 4.79 2.64 1.568-.861 3.135-1.729 4.698-2.602 0-.017-.007-.053-.008-.071-1.559-.876-3.127-1.737-4.693-2.6-1.596.873-3.175 1.787-4.786 2.633zm13.577-.015c1.542.94 3.16 1.757 4.727 2.657 1.585-.882 3.184-1.735 4.75-2.647-1.584-.873-3.163-1.757-4.75-2.627-1.572.874-3.148 1.746-4.727 2.614v.003zm13.75-.13c-.083.035-.336.19-.1.241 1.53.846 3.065 1.691 4.587 2.545a700.704 700.704 0 004.779-2.641c-1.589-.883-3.174-1.766-4.763-2.64-1.5.834-3.001 1.664-4.504 2.491v.004zM3.22 15.796c-.086.034-.326.177-.098.242 1.533.845 3.069 1.69 4.6 2.548 1.509-.822 3.004-1.669 4.515-2.491.09-.033.313-.179.094-.242-1.538-.845-3.069-1.705-4.609-2.547-1.5.832-3 1.662-4.503 2.49h.001zm13.285.161c1.577.874 3.158 1.743 4.732 2.622a961.07 961.07 0 004.707-2.604c0-.14-.195-.153-.28-.23-1.48-.802-2.942-1.636-4.42-2.439-1.571.895-3.19 1.721-4.74 2.65v.001zm13.565-.048v.069c1.55.884 3.124 1.725 4.678 2.601 1.57-.862 3.136-1.73 4.7-2.605v-.063a704.07 704.07 0 00-4.7-2.606c-1.55.876-3.126 1.72-4.68 2.603h.002zm13.471.046c1.57.887 3.16 1.745 4.733 2.629a861.51 861.51 0 004.716-2.614c-.04-.12-.193-.154-.287-.224-1.481-.805-2.948-1.64-4.429-2.445-1.564.898-3.185 1.721-4.734 2.652l.002.002zM9.976 19.54c-.073.039-.34.183-.098.232 1.533.846 3.07 1.69 4.6 2.55 1.478-.808 2.946-1.637 4.426-2.442.11-.065.216-.138.316-.218-1.585-.863-3.155-1.75-4.739-2.614-1.5.833-3.002 1.664-4.505 2.492zm13.284.154c1.576.879 3.16 1.746 4.735 2.626a906.929 906.929 0 004.715-2.61c-.05-.121-.195-.153-.291-.222-1.479-.806-2.945-1.635-4.424-2.442-1.573.892-3.177 1.731-4.735 2.648zm13.571-.047v.07c1.556.882 3.13 1.731 4.688 2.607 1.585-.866 3.16-1.751 4.743-2.618-1.556-.931-3.17-1.773-4.753-2.657-1.557.873-3.127 1.718-4.678 2.598zM16.554 23.39v.074c1.554.877 3.125 1.728 4.682 2.601 1.604-.868 3.184-1.782 4.796-2.636-1.607-.862-3.19-1.768-4.794-2.64-1.558.873-3.133 1.722-4.684 2.6v.001zm13.526 0c0 .018-.009.053-.011.072 1.556.883 3.132 1.733 4.694 2.608 1.504-.822 2.998-1.665 4.503-2.485.09-.036.333-.181.101-.242-1.538-.845-3.073-1.706-4.614-2.55-1.553.87-3.124 1.713-4.674 2.594v.003zM2.988 30.9c.303.204.618.39.944.555 8.024 4.444 16.048 8.888 24.07 13.333 8.356-4.618 16.707-9.242 25.054-13.87-3.85-2.117-7.686-4.261-11.535-6.38a8973.58 8973.58 0 01-12.967 7.18 1.035 1.035 0 01-1.108 0c-4.322-2.394-8.643-4.788-12.962-7.183A6709.21 6709.21 0 012.988 30.9zm20.278-3.752c.1.081.205.155.316.22 1.474.81 2.947 1.626 4.417 2.445 1.539-.846 3.073-1.7 4.608-2.55.234-.055-.025-.204-.104-.241-1.506-.824-3.004-1.667-4.51-2.49-1.572.875-3.146 1.748-4.723 2.617h-.004zM2.934 45.892c1.609.852 3.191 1.757 4.788 2.636a5657.25 5657.25 0 0011.467-6.353c-.008-.016-.02-.05-.027-.066-1.55-.884-3.119-1.736-4.682-2.6-3.845 2.13-7.685 4.278-11.546 6.383zm13.704 7.396c-.211.066.009.204.103.241 1.5.824 2.998 1.653 4.494 2.488 8.349-4.623 16.696-9.249 25.04-13.877-1.586-.875-3.167-1.759-4.755-2.63-8.288 4.6-16.582 9.193-24.882 13.779v-.001zm-6.75-3.744c-.129.062-.13.12-.008.18 1.533.845 3.068 1.69 4.598 2.548a6132.21 6132.21 0 0011.466-6.346l-.014-.074c-1.558-.874-3.12-1.74-4.687-2.599a5211.146 5211.146 0 01-11.356 6.291zm13.38 7.555c1.542.945 3.164 1.762 4.733 2.663 7.072-3.907 14.14-7.82 21.205-11.74 1.27-.724 2.573-1.39 3.821-2.148-1.59-.864-3.163-1.757-4.752-2.623-8.333 4.62-16.669 9.236-25.007 13.848z"/></svg><svg viewBox="0 0 56 56" id="paper" xmlns="http://www.w3.org/2000/svg"><path d="M11.289 0h43.53A1.22 1.22 0 0156 1.18v37.459c-.041.265-.164.51-.352.702-2.926 2.91-5.845 5.828-8.757 8.75-.315.299-.582.681-.998.846-.378.102-.775.049-1.16.06H23.212c-.376 1.948-1.72 3.573-3.325 4.672-2.321 1.59-5.16 2.26-7.944 2.328h-.563c-2.987-.076-6.058-.846-8.448-2.707C1.283 52.026.052 50.094 0 47.975V7.952C.082 5.887 1.268 4.014 2.866 2.76 5.238.875 8.305.095 11.289 0zm8.597 2.328c1.45.994 2.68 2.406 3.189 4.11.383 1.248.235 2.562.26 3.845v36.382h21v-8.057a1.195 1.195 0 011.17-1.263c2.718-.023 5.438 0 8.157-.013V2.337c-11.258-.006-22.517-.01-33.776-.01zm-9.8.098c-2.212.258-4.45 1.004-6.132 2.516C3.02 5.797 2.263 7 2.362 8.306c.014 1.312.837 2.458 1.802 3.281 1.601 1.331 3.645 2.027 5.687 2.297 2.695.328 5.53-.052 7.933-1.354 1.271-.708 2.469-1.728 2.986-3.126a3.661 3.661 0 00-.282-3.088c-.691-1.221-1.858-2.096-3.097-2.707-2.248-1.119-4.826-1.421-7.304-1.183zM2.33 13.1c.013 11.567.015 23.135.007 34.703-.01 1.38.818 2.61 1.848 3.461 1.599 1.32 3.634 2.01 5.67 2.282 2.625.328 5.385-.036 7.754-1.26 1.219-.647 2.368-1.556 2.992-2.812.285-.59.422-1.242.399-1.897v-34.47a10.575 10.575 0 01-1.969 1.439c-2.686 1.487-5.845 1.976-8.882 1.72-2.827-.262-5.71-1.2-7.82-3.166zm44.336 26.566c-.005 1.788.009 3.578-.007 5.366a972.295 972.295 0 015.374-5.374c-1.788.016-3.58.002-5.367.008z"/><path d="M10.55 4.775c1.312-.227 2.714-.064 3.893.573.875.476 1.634 1.288 1.824 2.297a2.851 2.851 0 01-.603 2.337c-.71.888-1.802 1.392-2.902 1.586-1.451.238-3.025.02-4.258-.816-.778-.529-1.394-1.365-1.474-2.32-.103-.902.298-1.807.955-2.416.695-.677 1.622-1.069 2.564-1.24zm.327 2.308a2.406 2.406 0 00-1.45.818.47.47 0 00.035.58c.45.52 1.131.766 1.8.828.922.085 1.97-.095 2.607-.818a.49.49 0 00-.024-.677c-.75-.791-1.95-.923-2.97-.73h.002z"/></svg><svg viewBox="0 0 286 15" id="scale" xmlns="http://www.w3.org/2000/svg"><path d="M0 7.5c0-.833.666-1.514 1.5-1.531L278.502.157a7.344 7.344 0 110 14.685L1.5 9.033A1.532 1.532 0 010 7.5z"/></svg></svg>