<svg viewBox="0 0 20 14" xmlns="http://www.w3.org/2000/svg">
<path d="M19.7276 6.29177L13.7759 0.275309C13.4128 -0.0917698 12.8239 -0.0917698 12.4608 0.275309C12.0976 0.642464 12.0976 1.23764 12.4608 1.6048L16.8249 6.01644H0.929947C0.416393 6.01644 0 6.43737 0 6.95651C0 7.47558 0.416393 7.89658 0.929947 7.89658H16.8249L12.4609 12.3082C12.0977 12.6754 12.0977 13.2706 12.4609 13.6377C12.6424 13.8211 12.8805 13.913 13.1185 13.913C13.3565 13.913 13.5945 13.8211 13.7761 13.6377L19.7276 7.62126C20.0908 7.2541 20.0908 6.65892 19.7276 6.29177Z"/>
</svg>
