<svg viewBox="0 0 31 32" xmlns="http://www.w3.org/2000/svg">
<path fill-rule="evenodd" clip-rule="evenodd" d="M26.1992 19.5819H22.9358C22.5736 19.5819 22.246 19.7977 22.1026 20.1298L20.7064 23.3932C20.5615 23.7328 20.1721 23.9064 19.7977 23.7992C13.6709 22.0242 8.97056 16.8242 7.82189 10.5525C7.76755 10.2536 7.9517 9.94113 8.26113 9.80981L11.8687 8.26566C12.2023 8.12226 12.4181 7.79472 12.4181 7.43245V4.16906C12.4181 1.87019 10.5479 0 8.24906 0H3.09132C1.91547 0 0.875472 0.812075 0.617358 1.93057C0.208302 3.70264 0 5.55472 0 7.43245C0 9.03094 0.138868 10.5177 0.424151 11.9728C2.1766 21.3313 9.26641 28.8936 18.4875 31.2377C20.4921 31.7434 22.5374 32 24.5675 32C25.7887 32 27.0249 31.9064 28.2445 31.7238C29.4551 31.5426 30.3683 30.4649 30.3683 29.2136V23.7509C30.3683 21.4521 28.4981 19.5819 26.1992 19.5819Z"/>
</svg>
