<svg viewBox="0 0 32 32" xmlns="http://www.w3.org/2000/svg">
<path fill-rule="evenodd" clip-rule="evenodd" d="M0 16C0 24.8366 7.16344 32 16 32C24.8366 32 32 24.8366 32 16C32 7.16344 24.8366 0 16 0C7.16344 0 0 7.16344 0 16C0 16 0 24.8366 0 16ZM29.0909 16C29.0909 23.2299 23.2299 29.0909 16 29.0909C8.77009 29.0909 2.90909 23.2299 2.90909 16C2.90909 8.77009 8.77009 2.90909 16 2.90909C23.2299 2.90909 29.0909 8.77009 29.0909 16C29.0909 16 29.0909 23.2299 29.0909 16ZM13.6 17.9716L22.0686 9.50294L24.3314 11.7657L13.6 22.4971L7.66863 16.5657L9.93137 14.3029L13.6 17.9716Z"/>
</svg>
