<svg viewBox="0 0 32 32" xmlns="http://www.w3.org/2000/svg">
<path fill-rule="evenodd" clip-rule="evenodd" d="M24 14.4V17.6H14.128L18.256 21.744L16 24L8 16L16 8L18.256 10.256L14.128 14.4L24 14.4ZM32 16C32 24.8366 24.8366 32 16 32C7.16344 32 0 24.8366 0 16C0 7.16344 7.16344 0 16 0C24.8366 0 32 7.16344 32 16C32 24.8366 32 16 32 16ZM28.8 16C28.8 23.0692 23.0692 28.8 16 28.8C8.93075 28.8 3.2 23.0692 3.2 16C3.2 8.93075 8.93076 3.2 16 3.2C23.0692 3.2 28.8 8.93076 28.8 16C28.8 23.0692 28.8 16 28.8 16Z"/>
</svg>
