<svg viewBox="0 0 56 62" xmlns="http://www.w3.org/2000/svg">
<path d="M27.8996 0H28.129C28.5876 0.14613 28.9944 0.410612 29.4132 0.641279C38.0651 5.43095 46.7153 10.2214 55.3639 15.0127C55.7948 15.2071 56.1038 15.6878 55.9674 16.166C55.8648 16.6636 55.3555 16.8677 54.9596 17.0899C51.1961 19.1744 47.4322 21.2596 43.668 23.3457C43.4676 23.4061 43.6885 23.5317 43.7645 23.5679C47.6576 25.7216 51.549 27.8773 55.4387 30.0351C55.6544 30.1393 55.8245 30.319 55.9168 30.5402C56.0091 30.7614 56.0172 31.0087 55.9396 31.2355C55.8105 31.6461 55.3868 31.8236 55.044 32.0205C51.1985 34.1436 47.3562 36.2711 43.5171 38.4031C47.4898 40.6083 51.4645 42.8111 55.4411 45.0115C55.6565 45.1164 55.8259 45.2966 55.9175 45.518C56.0092 45.7394 56.0166 45.9867 55.9384 46.2132C55.7815 46.6769 55.2806 46.8484 54.8968 47.0767C46.6803 51.6224 38.4666 56.1713 30.2557 60.7235C29.5508 61.0858 28.8894 61.5399 28.1495 61.8333H27.8695C27.4794 61.6839 27.1044 61.4979 26.7494 61.2778C18.0195 56.4398 9.28877 51.6035 0.55727 46.7687C0.35558 46.673 0.192818 46.5109 0.0961618 46.3096C-0.000494725 46.1082 -0.025195 45.8798 0.0261857 45.6625C0.0901572 45.3388 0.354492 45.1178 0.62969 44.9705C4.58868 42.7846 8.54404 40.5958 12.4958 38.4043C8.54404 36.216 4.5919 34.0277 0.639346 31.8393C0.360527 31.692 0.0949852 31.4674 0.0358418 31.1437C-0.0147163 30.9279 0.00974783 30.7013 0.105198 30.5013C0.200649 30.3013 0.361384 30.1398 0.56089 30.0435C4.53195 27.8343 8.50824 25.6294 12.4898 23.429C8.51467 21.219 4.53678 19.0138 0.556063 16.8134C0.356238 16.7171 0.195319 16.5554 0.100029 16.3551C0.00473845 16.1547 -0.0191885 15.9278 0.0322209 15.7119C0.0961923 15.3883 0.361734 15.1661 0.635725 15.0187C9.54586 10.0866 18.4556 5.15238 27.3649 0.216175C27.5356 0.126724 27.7147 0.0543158 27.8996 0V0ZM23.2611 4.72566C24.8362 5.60606 26.4198 6.47197 27.995 7.35116C29.5665 6.48646 31.1356 5.61774 32.7023 4.74498V4.67373C31.1396 3.79776 29.5729 2.93024 28.0022 2.07118C26.4331 2.96607 24.8169 3.80058 23.2611 4.72566ZM16.5019 8.44291C18.0565 9.36558 19.6654 10.1989 21.2369 11.0926C22.7433 10.2701 24.2388 9.42838 25.7451 8.60474C25.8236 8.5673 26.0867 8.42117 25.8453 8.3632C24.3064 7.51782 22.7735 6.65916 21.2333 5.81499C19.6606 6.69901 18.077 7.56371 16.5031 8.44291H16.5019ZM30.0203 8.47068C31.5955 9.34867 33.1767 10.2146 34.7518 11.095C36.2316 10.287 37.7005 9.45736 39.1803 8.64942C39.2915 8.58326 39.3987 8.51068 39.5014 8.43204C37.9154 7.56854 36.3439 6.6809 34.7603 5.8162C33.1924 6.7123 31.5762 7.54318 30.0228 8.47068H30.0203ZM9.69191 12.1976C11.2984 13.0599 12.8857 13.9572 14.4801 14.8388C16.0492 13.9765 17.6155 13.109 19.179 12.2362C19.179 12.2193 19.1718 12.1831 19.1705 12.165C17.6123 11.2894 16.0444 10.4283 14.4777 9.56484C12.882 10.438 11.3033 11.3522 9.69191 12.1976ZM23.2683 12.1831C24.8097 13.1227 26.4283 13.9403 27.995 14.84C29.5798 13.9584 31.1791 13.1046 32.7458 12.1928C31.161 11.3196 29.5822 10.4356 27.995 9.56605C26.4227 10.4404 24.8471 11.3116 23.2683 12.1795V12.1831ZM37.0174 12.0527C36.9353 12.0877 36.6818 12.2423 36.9184 12.2942C38.4477 13.1396 39.983 13.985 41.505 14.8388C43.1031 13.9636 44.696 13.0832 46.2836 12.1976C44.6952 11.3148 43.1104 10.432 41.5207 9.55881C40.0208 10.3921 38.5197 11.2222 37.0174 12.049V12.0527ZM3.22114 15.7965C3.13544 15.8303 2.89525 15.9728 3.12337 16.038C4.65627 16.8834 6.19158 17.7288 7.72328 18.5862C9.23204 17.7638 10.7275 16.9172 12.2375 16.0948C12.328 16.0622 12.5513 15.916 12.3316 15.8532C10.7939 15.0079 9.26342 14.148 7.72328 13.3062C6.22337 14.1379 4.72225 14.9676 3.21993 15.7953L3.22114 15.7965ZM16.5055 15.9571C18.083 16.8315 19.6642 17.6998 21.2382 18.579C22.8089 17.7159 24.378 16.848 25.9455 15.9752C25.9455 15.8351 25.75 15.8218 25.6655 15.7446C24.1857 14.9427 22.7228 14.1094 21.2442 13.3062C19.6739 14.2011 18.0553 15.0272 16.5043 15.9559L16.5055 15.9571ZM30.071 15.9088V15.9776C31.6208 16.8617 33.1948 17.7034 34.7494 18.579C36.3185 17.7167 37.8852 16.8484 39.4495 15.974C39.4495 15.9583 39.4495 15.9269 39.4495 15.9112C37.8868 15.0369 36.3201 14.1681 34.7494 13.305C33.1984 14.1806 31.6233 15.0248 30.0698 15.9076L30.071 15.9088ZM43.5425 15.9547C45.1116 16.8423 46.7024 17.6998 48.2751 18.5838C49.8499 17.7175 51.4218 16.8464 52.9909 15.9704C52.9511 15.8496 52.7978 15.8158 52.7037 15.7458C51.2227 14.9414 49.7561 14.1069 48.2751 13.3014C46.7109 14.1987 45.0898 15.0224 43.5413 15.9535L43.5425 15.9547ZM9.97556 19.5403C9.90314 19.5789 9.63518 19.7227 9.87779 19.7722C11.4107 20.6176 12.9472 21.4629 14.4777 22.3216C15.9563 21.5137 17.424 20.6852 18.9038 19.8797C19.0142 19.8147 19.1199 19.7421 19.22 19.6623C17.6352 18.7988 16.0649 17.9123 14.4813 17.0476C12.9814 17.8809 11.4795 18.7118 9.97556 19.5403ZM23.2599 19.6937C24.8362 20.5729 26.4198 21.44 27.995 22.3204C29.5689 21.4549 31.1404 20.5845 32.7096 19.7094C32.6601 19.5886 32.5152 19.5572 32.4187 19.4884C30.9401 18.6816 29.4736 17.8532 27.995 17.0464C26.4223 17.9377 24.8181 18.777 23.2599 19.6937ZM36.8315 19.6466C36.8315 19.6635 36.8315 19.6997 36.8315 19.7178C38.3873 20.5994 39.9613 21.4484 41.5195 22.324C43.1043 21.4581 44.6783 20.5729 46.2619 19.7058C44.706 18.7746 43.0922 17.9329 41.5087 17.0489C39.9516 17.922 38.3825 18.7674 36.8315 19.6466ZM16.5538 23.3904C16.5538 23.4097 16.5538 23.4459 16.5538 23.4641C18.1084 24.3408 19.6787 25.1923 21.2357 26.0654C22.8399 25.1971 24.4198 24.2829 26.0324 23.429C24.4247 22.5668 22.8411 21.661 21.2382 20.789C19.6799 21.6622 18.1048 22.5112 16.5538 23.3892V23.3904ZM30.0795 23.3904C30.0795 23.4085 30.071 23.4435 30.0686 23.4616C31.6245 24.3445 33.2008 25.1947 34.7627 26.0702C36.2666 25.2478 37.7609 24.4048 39.266 23.5848C39.3554 23.5486 39.5992 23.4037 39.3674 23.3433C37.8285 22.4979 36.2944 21.6368 34.753 20.7927C33.1996 21.6622 31.6293 22.5064 30.0795 23.3868V23.3904ZM2.98818 30.8986C3.29124 31.1027 3.60645 31.2883 3.93207 31.4541C11.9563 35.8976 19.9796 40.3418 28.0022 44.7869C36.3579 40.1687 44.7092 35.5453 53.0561 30.9167C49.2057 28.7996 45.3699 26.656 41.5207 24.5365C37.1996 26.9341 32.8773 29.3278 28.5538 31.7174C28.3881 31.8224 28.196 31.8781 27.9998 31.8781C27.8037 31.8781 27.6115 31.8224 27.4458 31.7174C23.1239 29.3229 18.8032 26.9285 14.4837 24.5341C10.6535 26.6596 6.82164 28.7811 2.98818 30.8986ZM23.2659 27.1475C23.3656 27.2284 23.4713 27.3015 23.5822 27.3661C25.0563 28.1776 26.5285 28.9928 27.9986 29.8116C29.5375 28.9663 31.0716 28.1124 32.607 27.2622C32.8411 27.2067 32.5816 27.0581 32.5032 27.0207C30.9968 26.197 29.4989 25.3541 27.9926 24.5304C26.421 25.4064 24.8467 26.2788 23.2695 27.1475H23.2659ZM2.93387 45.8919C4.54281 46.7445 6.1252 47.6491 7.72207 48.5283C11.5467 46.4149 15.3689 44.297 19.1887 42.1747C19.1814 42.159 19.1693 42.1252 19.1621 42.1095C17.6123 41.2254 16.0432 40.3728 14.4801 39.5081C10.6346 41.6397 6.79509 43.7869 2.93387 45.8919ZM16.6382 53.2878C16.427 53.3542 16.6467 53.4919 16.7408 53.5293C18.2416 54.3529 19.7394 55.1822 21.2345 56.0171C29.5838 51.3941 37.9307 46.7683 46.2751 42.1397C44.6891 41.2653 43.1079 40.3813 41.5195 39.5105C33.2322 44.1102 24.9384 48.703 16.6382 53.289V53.2878ZM9.88744 49.544C9.7595 49.6055 9.75709 49.6647 9.8802 49.7239C11.4131 50.5693 12.9484 51.4147 14.4777 52.2721C18.3015 50.1611 22.1237 48.0456 25.9443 45.9257L25.9298 45.8521C24.3719 44.9777 22.8097 44.1114 21.243 43.2531C17.461 45.3545 13.6758 47.4514 9.88744 49.544ZM23.2683 57.0992C24.8097 58.0436 26.4319 58.8612 28.001 59.7622C35.0733 55.8549 42.1415 51.9416 49.2057 48.0223C50.4755 47.2977 51.7791 46.6322 53.0271 45.8738C51.4375 45.0103 49.8636 44.1166 48.2751 43.2507C39.942 47.8705 31.6064 52.4867 23.2683 57.0992Z"/>
</svg>
