<svg viewBox="0 0 56 56" xmlns="http://www.w3.org/2000/svg">
<path d="M11.2886 0H54.8198C55.1295 0.00983845 55.4239 0.137186 55.6431 0.356178C55.8623 0.575169 55.9899 0.869383 56 1.17906V38.6389C55.9587 38.904 55.8356 39.1495 55.6478 39.3411C52.7224 42.2519 49.8035 45.1686 46.8913 48.0911C46.5763 48.3897 46.3094 48.7725 45.8927 48.9366C45.5153 49.0394 45.1183 48.9858 44.7333 48.9978C37.559 48.9978 30.3851 48.9978 23.2116 48.9978C22.8364 50.9447 21.4911 52.57 19.8866 53.6692C17.5656 55.2584 14.7263 55.9289 11.9427 55.9967H11.3805C8.39344 55.9212 5.32219 55.1512 2.93234 53.2897C1.28297 52.0264 0.0514062 50.0938 0 47.9752V7.95156C0.0820312 5.88656 1.26766 4.01406 2.86563 2.75953C5.23797 0.875 8.30484 0.0951563 11.2886 0ZM19.8855 2.3275C21.3358 3.32172 22.5662 4.73375 23.0748 6.43781C23.4577 7.68578 23.31 9.00047 23.3341 10.2834C23.3341 22.4109 23.3341 34.5381 23.3341 46.6648C30.3341 46.6648 37.3341 46.6648 44.3341 46.6648C44.3341 43.9797 44.3341 41.2934 44.3341 38.6083C44.3248 38.4477 44.348 38.287 44.4023 38.1356C44.4566 37.9843 44.541 37.8454 44.6503 37.7275C44.7595 37.6095 44.8915 37.5148 45.0383 37.4491C45.1851 37.3834 45.3436 37.348 45.5044 37.345C48.2234 37.322 50.9425 37.345 53.6616 37.3319C53.6616 25.6652 53.6616 14.0004 53.6616 2.33734C42.404 2.33078 31.1453 2.3275 19.8855 2.3275ZM10.0866 2.42594C7.87391 2.68406 5.63609 3.43 3.95391 4.94156C3.02094 5.79688 2.26297 7 2.3625 8.30594C2.37563 9.61844 3.19922 10.7636 4.16391 11.5872C5.76516 12.9183 7.80937 13.6139 9.85141 13.8841C12.5464 14.2122 15.3803 13.8316 17.7844 12.53C19.0553 11.8223 20.253 10.8019 20.7703 9.40406C20.9521 8.90012 21.0211 8.3624 20.9724 7.82887C20.9236 7.29535 20.7583 6.77904 20.4881 6.31641C19.7969 5.09469 18.6298 4.21969 17.3906 3.60938C15.143 2.49047 12.565 2.1875 10.0866 2.42594ZM2.32969 13.1009C2.34281 24.6684 2.34536 36.2363 2.33734 47.8045C2.3275 49.1838 3.15547 50.4131 4.18469 51.2652C5.78375 52.5853 7.81922 53.2755 9.85469 53.5467C12.4797 53.8748 15.2403 53.5106 17.6094 52.2867C18.8278 51.6403 19.9773 50.7314 20.6008 49.4747C20.8863 48.8845 21.0234 48.2334 21 47.5781C21 36.0886 21 24.5984 21 13.1075C20.4015 13.6616 19.7408 14.1446 19.0312 14.5469C16.345 16.0344 13.1862 16.5233 10.1489 16.2673C7.32156 16.0048 4.43953 15.0675 2.32969 13.1009ZM46.6659 39.667C46.6605 41.4553 46.6747 43.2447 46.6594 45.033C48.4436 43.2348 50.2348 41.4436 52.033 39.6594C50.2447 39.6747 48.4531 39.6605 46.6659 39.667Z"/>
<path d="M10.5494 4.77534C11.8619 4.54784 13.264 4.71081 14.4431 5.34846C15.3181 5.82425 16.0772 6.63581 16.2675 7.64534C16.3438 8.05521 16.3293 8.47685 16.225 8.88051C16.1207 9.28417 15.9291 9.66003 15.6637 9.98159C14.9539 10.8697 13.8623 11.3739 12.762 11.5675C11.3106 11.806 9.7367 11.5883 8.50405 10.7516C7.72639 10.2233 7.10951 9.38659 7.02967 8.43284C6.92686 7.5305 7.32826 6.62487 7.98451 6.01565C8.68014 5.33862 9.60654 4.94706 10.5494 4.77534ZM10.8775 7.08315C10.3121 7.17457 9.79784 7.46466 9.42717 7.90128C9.36727 7.98787 9.33816 8.09207 9.34451 8.19717C9.35086 8.30227 9.39229 8.40221 9.46217 8.48097C9.9117 9.00159 10.5931 9.24659 11.2625 9.30894C12.1845 9.39425 13.2312 9.21378 13.8689 8.49081C13.9528 8.39658 13.9972 8.27359 13.9927 8.14747C13.9882 8.02134 13.9353 7.90181 13.8448 7.81378C13.0945 7.023 11.8947 6.89065 10.8753 7.08315H10.8775Z"/>
</svg>
