<svg viewBox="0 0 32 32" xmlns="http://www.w3.org/2000/svg">
<path fill-rule="evenodd" clip-rule="evenodd" d="M8 17.6V14.4H17.872L13.744 10.256L16 8L24 16L16 24L13.744 21.744L17.872 17.6H8ZM0 16C7.72516e-07 7.16344 7.16345 -7.72516e-07 16 0C24.8366 7.72516e-07 32 7.16345 32 16C32 24.8366 24.8366 32 16 32C7.16344 32 -7.72516e-07 24.8366 0 16C7.72516e-07 7.16344 0 16 0 16ZM3.2 16C3.2 8.93075 8.93076 3.2 16 3.2C23.0692 3.2 28.8 8.93076 28.8 16C28.8 23.0692 23.0692 28.8 16 28.8C8.93075 28.8 3.2 23.0692 3.2 16C3.2 8.93075 3.2 16 3.2 16Z"/>
</svg>
